<?xml version="1.0" encoding="UTF-8"?>
<svg id="Layer_2" data-name="Layer 2" xmlns="http://www.w3.org/2000/svg" viewBox="0 0 44.59 64.93">
  <defs>
    <style>
      .cls-1 {
        fill: #fff;
      }
    </style>
  </defs>
  <g id="Layer_1-2" data-name="Layer 1">
    <g>
      <path class="cls-1" d="M22.26,0s0,4.54-4.54,4.54c0,0,4.54,0,4.54,4.54,0,0-.06-4.54,4.54-4.54,0,0-4.54.02-4.54-4.54Z"/>
      <path class="cls-1" d="M0,14.01l18.47,50.93h3.79s0,0,0,0h3.88S44.59,14.01,44.59,14.01H0ZM22.26,64.93L5.78,19.48c-1.33-3.94,2.38-3.94,2.38-3.94h24.56s0,0,0,0h3.87s3.7,0,2.38,3.94l-.61,1.64H14.08s12.07,33.45,12.07,33.45l-3.89,10.35ZM27.64,29.29l-.21.58-.15.4-3.55,9.58-.05.14-4.46-12.03h7.6s1.26,0,.82,1.33ZM27.53,50.4l-3.06-8.26v-.15s1.62-4.51,1.62-4.51l3.61-10.04h-10.67s-.62-1.68-.62-1.68l-.16-.42c-1-3.03,1.86-3.03,1.86-3.03h17.81s-10.39,28.09-10.39,28.09Z"/>
    </g>
  </g>
</svg>