<?xml version="1.0" encoding="UTF-8"?>
<svg id="Layer_2" data-name="Layer 2" xmlns="http://www.w3.org/2000/svg" viewBox="0 0 163.95 107.59">
  <defs>
    <style>
      .cls-1 {
        fill: #fff;
      }
    </style>
  </defs>
  <g id="Layer_1-2" data-name="Layer 1">
    <g>
      <g>
        <path class="cls-1" d="M83.05,0s0,4.54-4.54,4.54c0,0,4.54,0,4.54,4.54,0,0-.06-4.54,4.54-4.54,0,0-4.54.02-4.54-4.54Z"/>
        <path class="cls-1" d="M60.79,14.01l18.47,50.93h3.79s0,0,0,0h3.88s18.45-50.93,18.45-50.93h-44.59ZM83.05,64.93l-16.48-45.45c-1.33-3.94,2.38-3.94,2.38-3.94h24.56s0,0,0,0h3.87s3.7,0,2.38,3.94l-.61,1.64h-24.28s12.07,33.45,12.07,33.45l-3.89,10.35ZM88.43,29.29l-.21.58-.15.4-3.55,9.58-.05.14-4.46-12.03h7.6s1.26,0,.82,1.33ZM88.32,50.4l-3.06-8.26v-.15s1.62-4.51,1.62-4.51l3.61-10.04h-10.67s-.62-1.68-.62-1.68l-.16-.42c-1-3.03,1.86-3.03,1.86-3.03h17.81s-10.39,28.09-10.39,28.09Z"/>
      </g>
      <g>
        <g>
          <path class="cls-1" d="M50.9,93.44h.03c13.69-.21,12.12-14.08-.48-14.08h-4.45s-1.46,0-1.46,0v.2c1.3,0,1.44.25,1.46.62,0,.04,0,.09,0,.14v26.38s0,.02,0,.03v-.05c-.02.37-.16.62-1.46.62v.2s.02,0,.02,0c-.01,0-.02,0-.02,0h5.61s-.06,0-.11,0h.14s0-.2,0-.2c-1.3,0-1.44-.25-1.46-.62v-13.1c7.91.15,6.33,14.48,15.41,13.91v-.28c-5.68,1.17-3.62-13.79-13.24-13.79ZM50.39,80.15c10.4.11,9.92,12.9.18,12.9h-1.84s-.01-11.43-.01-11.43c.04-.46.24-1.38,1.67-1.47Z"/>
          <path class="cls-1" d="M8.73,90.51l9.7,16.13c.21.32.44.52.66.58.23.07.52.1.87.1v.2s-4.15,0-4.15,0l-8.9-14.92-2.68,3v10.97c0,.21.06.4.18.54.12.15.56.22,1.31.22v.2s-5.72,0-5.72,0v-.2c.75,0,1.19-.07,1.31-.22.12-.15.18-.33.18-.54v-26.23c0-.21-.06-.4-.18-.54-.12-.15-.56-.22-1.31-.22v-.2s5.72,0,5.72,0v.2c-.75,0-1.19.07-1.31.22-.12.15-.18.33-.18.54v14.27s10.57-12.01,10.57-12.01c.64-.72,1.09-1.29,1.33-1.69.24-.4.34-.7.3-.9s-.19-.32-.46-.36c-.27-.04-.59-.06-.97-.06v-.2s4.88,0,4.88,0v.2c-.51,0-.91.03-1.21.08-.3.05-.59.19-.89.42-.3.23-.62.55-.99.97-.36.42-.87.99-1.51,1.71l-6.57,7.76Z"/>
          <g>
            <path class="cls-1" d="M42.29,107.24c-.2-.04-.36-.09-.46-.16-.11-.07-.18-.15-.22-.24-.04-.09-.07-.19-.1-.3l-7.91-27.18h-4.23v.2c.72,0,1.16.05,1.31.14.15.09.23.22.26.38l.1.25-7.15,23.77c-.19.56-.36,1.04-.5,1.43-.15.39-.32.72-.52.99-.2.27-.45.46-.74.58-.3.12-.7.23-1.21.23v.2s5.29,0,5.29,0v-.2c-.56,0-.99-.09-1.29-.28-.3-.19-.79-.48-.7-1.51.03-.38.11-.86.3-1.4l6.8-22.66,3.61,12.45h-7.56s-.14.51-.14.51h7.81s3.57,12.12,3.57,12.12c.05.21.03.4-.06.54-.09.15-.51.22-1.27.22v.2h5.87v-.2c-.37,0-.66-.02-.86-.06Z"/>
            <path class="cls-1" d="M86.35,107.24c-.2-.04-.36-.09-.46-.16-.11-.07-.18-.15-.22-.24-.04-.09-.07-.19-.1-.3l-7.91-27.18h-4.29v.2c.72,0,1.16.05,1.31.14.15.09.23.22.26.38l.1.25-7.15,23.77c-.19.56-.36,1.04-.5,1.43-.15.39-.32.72-.52.99-.2.27-.45.46-.74.58-.3.12-.7.23-1.21.23v.2s5.29,0,5.29,0v-.2c-.56,0-.99-.09-1.29-.28-.3-.19-.79-.48-.7-1.51.03-.38.11-.86.3-1.4l6.8-22.66,3.61,12.45h-7.56s-.14.51-.14.51h7.81s3.57,12.12,3.57,12.12c.05.21.03.4-.06.54-.09.15-.51.22-1.27.22v.2h5.93v-.2c-.37,0-.66-.02-.86-.06Z"/>
            <g>
              <path class="cls-1" d="M108.64,102.23c0,.91-.66,4.31-2.64,4.31h-8.97c-.59,0-1.22-.65-1.22-1.85v-24.24c.05-.14.12-.9.86-.91h.6v-.22h-7.08l.07.21h.6c.51,0,.88.14.88.46l-.19,26.1-.02.66c-.1.26-.2.5-.95.52l-.58.02v.22h18.89v-5.89h-.25v.6Z"/>
              <path class="cls-1" d="M110.8,79.6h.6c.53,0,.88.18.88.64,0,.03.01.06.01.1v26.23s0,.28-.01.31c-.18.43-.35.44-.88.44h-.6v.27h7.2v-.28h-.6c-.52,0-.75-.03-.88-.42,0-.03-.01-.27-.01-.31v-26.23s0-.11.01-.14c0-.5.35-.66.88-.66h.6v-.22h-7.2v.27Z"/>
              <g>
                <rect class="cls-1" x="149.62" y="107.2" width=".01" height=".28"/>
                <path class="cls-1" d="M163.36,107.2c-.52,0-.75-.03-.88-.42,0-.01,0-.06,0-.1,0,0,0,0,0,0,0-.03-.01-.06-.01-.1,0,0-.01-26.43,0-26.46,0-.5.35-.6.88-.6h.59v-.17h-7.16v.19h.6c.53,0,.88.18.88.64,0,.03.01.06.01.1v12.94h-10.11s-.01-13.09,0-13.11c0-.5.35-.6.88-.6h.59v-.17h-7.16v.19h.6c.53,0,.88.18.88.64,0,.03.01.06.01.1v26.18s0,.28-.01.31c-.18.43-.35.44-.88.44h-.6v.27h7.18v-.28h-.59c-.52,0-.75-.03-.88-.42,0-.01,0-.06,0-.1,0,0,0,0,0,0,0-.03-.01-.06-.01-.1v-12.28h10.11v12.18s0,.28-.01.31c-.18.43-.35.44-.88.44h-.6v.27h7.18v-.28h-.59Z"/>
              </g>
            </g>
          </g>
        </g>
        <path class="cls-1" d="M120.63,79.29v5.99h.18v-.6c0-.27.03-.67.1-1.19.06-.5.19-1.02.37-1.54.17-.48.43-.91.76-1.26.27-.29.62-.43,1.07-.43h4.3c.53,0,.77.04.87.06,0,.02.01.06.01.1h0v26.15s0,.28-.01.31c-.18.43-.35.44-.88.44h-.6v.27h7.2v-.28h-.6c-.52,0-.75-.03-.88-.42,0-.03-.01-.27-.01-.31v-26.23s0-.01,0-.02c.1-.02.34-.06.87-.06h3.85c.46,0,.83.15,1.15.45.37.36.67.79.9,1.28.23.52.4,1.03.5,1.53.1.51.15.9.15,1.15v.6h.21v-5.9l-19.52-.08Z"/>
      </g>
    </g>
  </g>
</svg>